# xmcd
#
# Track frame offsets:
#	150
#	16995
#	31810
#	46900
#	61090
#	78577
#	96720
#	110957
#	124642
#	140275
#	158105
#	174137
#	188795
#	208232
#	223907
#	243512
#	261572
#	279750
#	293412
#	304397
#
# Disc length: 4213
#
# Revision: 1
# Processed by: cddbd v1.5.1PL0 Copyright (c) Steve Scherf et al.
# Submitted via: VisiTrax 2.9.5.180 - For more info visit www.synapsa.com
# Normalized: r0:DSETVAR1
#
DISCID=26107314
DTITLE=Various Artist - CDX 114 July 1995
DYEAR=1995
DGENRE=
TTITLE0=James House - Anything for love
TTITLE1=Amie Comeaux - Blue
TTITLE2=David Lee Murphy - Dust on the bottle
TTITLE3=Hal Ketchum - Every little word
TTITLE4=Mavericks - Here comes the rain
TTITLE5=Linda Ronstadt - High Sierra
TTITLE6=Tracy Lawrence - If the world had a front porch
TTITLE7=Daryle Singletary - I let her lie
TTITLE8=Tim McGraw - I like it, I love it
TTITLE9=Blackhawk - I'm not strong enough to say no
TTITLE10=Emilio - It's not the end of the world
TTITLE11=Faith HIll - Let's go to Vegas
TTITLE12=Delevantes - Pocket full of diamonds
TTITLE13=Lonestar - Tequila talkin'
TTITLE14=Joe Diffie - That road not taken
TTITLE15=Billy Ray Cyrus - The fastest horse in a one horse town
TTITLE16=Shania Twain - The woman in me (needs the man in you)
TTITLE17=Jon Randall - To pieces
TTITLE18=Sammy Kershaw - our tattoo
TTITLE19=Dodie Petit - The flame
EXTD=
EXTT0=
EXTT1=
EXTT2=
EXTT3=
EXTT4=
EXTT5=
EXTT6=
EXTT7=
EXTT8=
EXTT9=
EXTT10=
EXTT11=
EXTT12=
EXTT13=
EXTT14=
EXTT15=
EXTT16=
EXTT17=
EXTT18=
EXTT19=
PLAYORDER=
